# xmcd
#
# Track frame offsets:
#	150
#	15876
#	34996
#	83046
#	113077
#	130752
#	151342
#	173314
#	195639
#	210199
#	224867
#	255865
#	289754
#	320057
#	340448
#
# Disc length: 4786 seconds
#
# Revision: 0
# Processed by: cddbd v1.5.2PL0 Copyright (c) Steve Scherf et al.
# Submitted via: EZCDAudioConverter 2.1.7.1
#
DISCID=c812b00f
DTITLE=Curved Air - Retrospective 2/2
DYEAR=1900
DGENRE=
TTITLE0=Curved Air - The Purple Speed Queen
TTITLE1=Curved Air - Elfin Boy
TTITLE2=Curved Air - Metamorphosis
TTITLE3=Curved Air - Easy
TTITLE4=Curved Air - The Dancer
TTITLE5=Curved Air - Dance Of Love
TTITLE6=Curved Air - Love Child
TTITLE7=Curved Air - Woman On A One Night Stand
TTITLE8=Curved Air - Desiree
TTITLE9=Curved Air - Broken Lady
TTITLE10=Curved Air - Marie Antoinette
TTITLE11=Curved Air - Vivaldi
TTITLE12=Sonja Kristina with MASK - Lambent Spire
TTITLE13=Sonja Kristina with MASK - Space In Between
TTITLE14=Sonja Kristina with MASK - Beloved
EXTD=
EXTT0=
EXTT1=
EXTT2=
EXTT3=
EXTT4=
EXTT5=
EXTT6=
EXTT7=
EXTT8=
EXTT9=
EXTT10=
EXTT11=
EXTT12=
EXTT13=
EXTT14=
PLAYORDER=
